<?xml version="1.0" standalone="no"?>
<!DOCTYPE svg PUBLIC "-//W3C//DTD SVG 20010904//EN"
 "http://www.w3.org/TR/2001/REC-SVG-20010904/DTD/svg10.dtd">
<svg version="1.0" xmlns="http://www.w3.org/2000/svg"
 width="512.000000pt" height="512.000000pt" viewBox="0 0 512.000000 512.000000"
 preserveAspectRatio="xMidYMid meet">

<g transform="translate(0.000000,512.000000) scale(0.100000,-0.100000)"
fill="#e31b78" stroke="none">
<path d="M1805 5105 c-51 -18 -120 -91 -134 -141 -6 -21 -11 -87 -11 -146 l0
-108 -142 0 c-187 -1 -234 -20 -272 -112 l-16 -37 -317 -3 -318 -3 -61 -28
c-77 -36 -154 -113 -191 -192 l-28 -60 0 -1995 0 -1995 28 -60 c37 -79 114
-156 191 -192 l61 -28 1228 -3 1228 -2 24 24 c32 32 32 70 0 101 l-24 25
-1198 0 c-814 0 -1210 4 -1236 11 -53 14 -132 93 -146 144 -16 57 -15 3894 0
3950 15 53 91 129 144 144 25 7 148 11 327 11 l287 0 3 -214 3 -214 30 -38
c65 -79 2 -74 895 -74 892 0 830 -5 894 74 25 30 31 48 34 101 l4 65 234 0
234 0 0 -676 0 -676 -381 -660 c-209 -362 -387 -675 -395 -693 -18 -44 -18
-134 2 -397 17 -225 24 -254 71 -285 51 -34 93 -22 338 91 127 59 246 120 265
135 19 15 50 50 68 77 l32 49 0 -318 0 -317 -1400 0 -1400 0 0 1835 0 1835 94
0 c100 0 141 10 162 38 20 25 17 65 -6 90 -20 21 -29 22 -176 22 l-156 0 -33
-33 c-26 -26 -34 -44 -40 -88 -3 -29 -5 -887 -3 -1904 3 -1749 4 -1852 21
-1878 9 -15 29 -35 44 -44 26 -17 109 -18 1493 -18 1384 0 1467 1 1493 18 64
42 62 23 67 562 l5 490 65 112 65 112 3 -617 c2 -465 0 -628 -10 -662 -15 -58
-87 -131 -144 -148 -25 -7 -104 -12 -198 -12 -153 0 -157 -1 -181 -25 -32 -31
-32 -69 0 -101 l26 -26 187 4 c180 3 189 4 248 31 77 36 154 113 191 192 l28
60 3 787 3 787 371 643 c204 354 375 659 379 678 11 48 -7 114 -41 150 l-27
29 50 88 c61 106 71 166 39 229 -25 49 -26 50 -136 113 -116 66 -154 78 -206
62 -58 -17 -99 -58 -150 -149 l-45 -80 -52 5 c-69 7 -96 -1 -143 -43 l-39 -35
-3 363 -3 363 -31 65 c-40 83 -102 145 -184 184 l-65 31 -318 3 -317 3 -16 37
c-38 92 -85 111 -271 112 l-143 0 0 106 c0 59 -6 125 -12 148 -17 55 -91 131
-143 145 -63 17 -649 14 -700 -4z m680 -160 c23 -23 25 -31 25 -130 l0 -105
-350 0 -350 0 0 105 c0 99 2 107 25 130 l24 25 301 0 301 0 24 -25z m450 -655
l0 -265 -775 0 -775 0 -3 255 c-1 140 0 260 3 267 3 11 159 13 777 11 l773 -3
0 -265z m816 85 c24 -17 57 -50 74 -74 l30 -43 3 -491 2 -492 -70 -120 -70
-120 0 545 c0 300 -5 563 -10 585 -5 24 -21 51 -40 68 l-30 27 -275 0 -275 0
0 76 0 75 309 -3 309 -3 43 -30z m811 -711 c44 -26 82 -53 85 -60 5 -14 -76
-164 -88 -164 -4 0 -48 23 -97 52 l-91 52 27 45 c47 83 72 121 79 121 3 0 42
-21 85 -46z m-179 -300 c111 -64 210 -123 219 -132 17 -14 16 -18 -14 -73 -18
-33 -37 -59 -43 -59 -5 1 -109 59 -230 130 -144 84 -220 134 -219 144 3 27 54
106 70 106 8 0 106 -52 217 -116z m-141 -266 c178 -102 228 -135 223 -147 -6
-15 -877 -1529 -899 -1562 -10 -15 -40 0 -241 117 -127 73 -229 138 -227 144
4 16 906 1580 911 1580 2 0 107 -59 233 -132z m-987 -1726 c110 -63 205 -120
212 -126 9 -8 1 -29 -31 -84 -24 -40 -49 -80 -57 -87 -22 -22 -422 -206 -429
-198 -8 9 -30 323 -30 416 0 50 6 68 46 137 43 73 48 79 68 68 11 -6 111 -63
221 -126z"/>
<path d="M1046 3519 c-36 -28 -36 -80 0 -108 27 -21 29 -21 1114 -21 1048 0
1089 1 1111 19 32 26 32 86 0 112 -22 18 -63 19 -1111 19 -1085 0 -1087 0
-1114 -21z"/>
<path d="M1056 3119 c-36 -28 -36 -80 0 -108 26 -21 36 -21 494 -21 442 0 469
1 491 19 32 26 32 86 0 112 -22 18 -49 19 -491 19 -458 0 -468 0 -494 -21z"/>
<path d="M2296 3119 c-19 -15 -26 -30 -26 -54 0 -24 7 -39 26 -54 25 -20 40
-21 224 -21 178 0 200 2 221 19 17 13 23 29 23 56 0 27 -6 43 -23 56 -21 17
-43 19 -221 19 -184 0 -199 -1 -224 -21z"/>
<path d="M1056 2719 c-36 -28 -36 -80 0 -108 26 -20 37 -21 409 -21 359 0 384
1 406 19 17 13 23 29 23 56 0 27 -6 43 -23 56 -22 18 -47 19 -406 19 -372 0
-383 -1 -409 -21z"/>
<path d="M2096 2719 c-19 -15 -26 -30 -26 -54 0 -24 7 -39 26 -54 25 -20 40
-21 219 -21 173 0 195 2 216 19 32 26 32 86 0 112 -21 17 -43 19 -216 19 -179
0 -194 -1 -219 -21z"/>
<path d="M1056 2319 c-36 -28 -36 -80 0 -108 26 -20 39 -21 309 -21 261 0 285
1 306 19 17 13 23 29 23 56 0 27 -6 43 -23 56 -21 18 -45 19 -306 19 -270 0
-283 -1 -309 -21z"/>
<path d="M1896 2319 c-19 -15 -26 -30 -26 -54 0 -24 7 -39 26 -54 26 -20 38
-21 319 -21 271 0 294 1 316 19 32 26 32 86 0 112 -22 18 -45 19 -316 19 -281
0 -293 -1 -319 -21z"/>
<path d="M1056 1919 c-36 -28 -36 -80 0 -108 26 -20 39 -21 309 -21 261 0 285
1 306 19 17 13 23 29 23 56 0 27 -6 43 -23 56 -21 18 -45 19 -306 19 -270 0
-283 -1 -309 -21z"/>
<path d="M1724 1263 c-16 -10 -62 -53 -102 -95 l-71 -76 -66 77 c-69 82 -97
101 -145 101 -51 0 -79 -21 -180 -137 -76 -86 -100 -120 -100 -141 0 -37 37
-72 77 -72 27 0 44 14 114 90 45 50 85 90 89 90 4 0 34 -32 66 -71 64 -77 96
-99 144 -99 47 0 68 14 152 103 l78 82 36 -40 c21 -22 61 -66 90 -97 42 -47
58 -58 83 -58 42 0 71 31 71 75 0 29 -14 50 -100 147 -125 140 -165 161 -236
121z"/>
</g>
</svg>
