<?xml version="1.0" standalone="no"?>
<!DOCTYPE svg PUBLIC "-//W3C//DTD SVG 20010904//EN"
 "http://www.w3.org/TR/2001/REC-SVG-20010904/DTD/svg10.dtd">
<svg version="1.0" xmlns="http://www.w3.org/2000/svg"
 width="512.000000pt" height="512.000000pt" viewBox="0 0 512.000000 512.000000"
 preserveAspectRatio="xMidYMid meet">

<g transform="translate(0.000000,512.000000) scale(0.100000,-0.100000)"
fill="#c4ffb2" stroke="none">
<path d="M2880 5105 c-301 -49 -584 -219 -765 -461 l-55 -72 -37 9 c-21 5 -94
9 -163 10 -101 0 -143 -5 -221 -25 -184 -47 -338 -136 -471 -274 -125 -129
-213 -281 -260 -447 -12 -44 -23 -81 -23 -82 0 -1 -34 -7 -74 -14 -354 -54
-639 -325 -739 -699 -21 -81 -25 -117 -25 -245 0 -129 4 -164 26 -246 46 -173
119 -307 234 -429 112 -120 216 -187 373 -242 l95 -33 525 -5 525 -5 -5 -40
c-3 -22 -5 -125 -5 -230 0 -145 4 -210 18 -275 45 -212 150 -448 271 -610 131
-175 344 -353 539 -452 104 -52 287 -113 407 -135 142 -26 421 -24 556 5 408
87 739 308 965 646 255 379 321 847 183 1298 l-27 87 57 61 c299 324 381 843
197 1254 -126 279 -412 531 -689 606 -36 9 -40 14 -46 51 -11 71 -64 221 -108
309 -69 136 -135 228 -248 341 -178 178 -368 284 -604 335 -100 22 -302 27
-406 9z m435 -189 c109 -32 212 -80 297 -137 86 -58 228 -198 287 -283 92
-135 166 -311 192 -459 15 -92 33 -109 139 -136 327 -84 573 -348 656 -706 25
-106 25 -349 1 -447 -36 -146 -119 -315 -205 -417 l-29 -34 -32 57 c-18 31
-60 94 -94 139 -441 596 -1249 783 -1908 441 -330 -172 -585 -460 -719 -815
l-39 -104 -508 0 c-559 0 -563 1 -700 65 -270 125 -443 411 -443 730 0 195 82
406 210 543 135 144 288 220 477 236 88 8 99 11 120 35 13 15 23 38 23 50 0
13 11 64 25 112 88 306 311 535 600 615 104 29 268 32 370 6 95 -24 109 -18
178 85 133 199 349 357 572 419 125 34 162 38 305 34 109 -2 152 -8 225 -29z
m244 -2001 c262 -50 487 -166 677 -348 214 -204 343 -441 400 -733 24 -121 24
-357 0 -479 -56 -285 -170 -500 -376 -705 -266 -267 -571 -394 -945 -394 -374
0 -679 127 -945 394 -206 205 -320 420 -376 705 -26 134 -24 368 5 505 80 380
310 700 646 898 140 82 343 150 517 172 97 12 293 4 397 -15z"/>
<path d="M3180 2508 c-97 -13 -249 -69 -342 -124 -113 -68 -248 -203 -314
-316 -49 -84 -106 -236 -119 -322 l-6 -39 -68 67 c-53 53 -74 67 -99 68 -65 2
-106 -53 -83 -111 7 -15 74 -90 150 -165 186 -184 167 -185 363 12 128 128
148 152 148 179 0 37 -35 81 -65 84 -45 3 -59 -3 -115 -57 l-59 -56 16 58 c58
224 224 414 440 504 81 34 198 60 270 60 36 0 50 6 74 29 17 18 29 40 29 56 0
16 -12 38 -29 56 -33 32 -65 35 -191 17z"/>
<path d="M4125 1841 c-11 -5 -84 -74 -162 -153 -124 -126 -143 -149 -143 -177
0 -44 38 -81 84 -81 29 0 46 10 102 62 l67 63 -7 -45 c-16 -98 -38 -169 -83
-260 -39 -80 -60 -109 -137 -185 -137 -136 -290 -207 -475 -222 -76 -6 -89
-10 -113 -34 -37 -37 -36 -72 3 -111 30 -31 30 -31 112 -24 239 20 439 113
602 280 45 46 101 118 129 164 55 93 112 248 121 331 12 113 8 110 81 42 67
-63 100 -75 143 -51 24 12 45 64 37 92 -8 32 -285 306 -316 312 -14 3 -34 1
-45 -3z"/>
</g>
</svg>
