<?xml version="1.0" standalone="no"?>
<!DOCTYPE svg PUBLIC "-//W3C//DTD SVG 20010904//EN"
 "http://www.w3.org/TR/2001/REC-SVG-20010904/DTD/svg10.dtd">
<svg version="1.0" xmlns="http://www.w3.org/2000/svg"
 width="512.000000pt" height="512.000000pt" viewBox="0 0 512.000000 512.000000"
 preserveAspectRatio="xMidYMid meet">

<g transform="translate(0.000000,512.000000) scale(0.100000,-0.100000)"
fill="#000000" stroke="none">
<path d="M4583 5012 c-10 -9 -153 -223 -318 -474 l-300 -457 -53 -1 c-101 0
-164 -45 -234 -166 l-41 -70 -74 -12 c-101 -16 -191 -61 -261 -130 -47 -46
-92 -116 -237 -369 l-180 -312 -5 232 c-6 252 -11 273 -71 363 -56 82 -107
116 -329 214 -163 72 -220 102 -250 132 -41 41 -70 110 -70 165 l0 33 56 0
c31 0 75 5 98 12 55 16 138 99 154 154 16 56 16 412 0 468 -16 55 -99 138
-154 154 -59 17 -1529 17 -1588 0 -55 -16 -138 -99 -154 -154 -16 -56 -16
-412 0 -468 16 -55 99 -138 154 -154 23 -7 67 -12 98 -12 l56 0 0 -33 c0 -55
-29 -124 -70 -165 -30 -30 -87 -60 -252 -132 -199 -88 -217 -98 -273 -155 -63
-62 -97 -121 -115 -197 -6 -27 -10 -628 -10 -1656 l0 -1613 25 -24 24 -25
1311 0 1311 0 24 25 25 24 0 320 c0 313 0 320 20 326 31 10 60 46 60 75 0 36
-24 67 -71 91 l-40 20 21 37 c12 20 286 494 609 1052 392 679 594 1038 609
1085 21 60 24 84 20 170 -3 82 -9 110 -31 158 l-26 58 47 81 c42 73 47 89 50
152 3 60 0 79 -21 119 l-25 48 304 461 c325 492 330 502 284 548 -25 25 -83
27 -107 2z m-2288 -237 c25 -24 25 -26 25 -215 0 -189 0 -191 -25 -215 l-24
-25 -751 0 -751 0 -24 25 c-25 24 -25 26 -25 215 0 189 0 191 25 215 l24 25
751 0 751 0 24 -25z m-295 -652 c1 -92 40 -188 106 -262 56 -62 86 -79 317
-182 143 -63 198 -92 227 -121 67 -68 70 -87 70 -477 l0 -346 -351 -607 -350
-606 -42 24 c-54 31 -91 31 -122 -1 -55 -54 -26 -100 115 -179 55 -32 100 -62
100 -67 0 -5 -70 -130 -155 -278 l-156 -269 -107 62 c-59 34 -115 65 -124 69
-24 9 -76 -11 -88 -33 -14 -26 -12 -73 3 -92 6 -9 174 -109 372 -223 198 -114
362 -209 364 -211 2 -2 -415 -4 -927 -4 l-932 0 0 240 0 240 455 0 456 0 24
25 c16 15 25 36 25 55 0 19 -9 40 -25 55 l-24 25 -456 0 -455 0 0 960 0 960
1015 0 1016 0 24 25 c33 32 33 78 0 110 l-24 25 -1016 0 -1015 0 0 193 c0 312
4 317 319 457 177 78 224 103 268 143 70 65 121 166 130 260 l6 67 478 0 479
0 0 -37z m1980 -233 c15 -27 12 -67 -6 -103 -29 -57 -31 -58 -85 -21 -28 19
-57 34 -65 34 -20 0 -17 16 9 63 27 48 68 69 109 55 16 -6 33 -18 38 -28z
m-218 -237 c62 -28 128 -90 158 -150 35 -69 40 -192 11 -259 -33 -73 -1213
-2114 -1224 -2114 -15 0 -548 312 -545 319 19 43 152 261 159 261 5 0 27 -9
49 -20 50 -25 85 -25 110 0 29 29 35 66 16 96 -15 22 -63 58 -90 67 -10 3 64
137 75 137 4 0 54 -27 112 -60 132 -76 182 -78 206 -9 18 51 -2 76 -114 141
-55 33 -106 63 -114 67 -11 7 -6 21 24 72 21 35 39 65 41 67 1 2 24 -8 50 -22
57 -30 71 -32 102 -10 58 41 47 108 -25 150 l-43 26 36 67 c20 36 38 67 39 69
1 1 53 -27 116 -63 63 -36 124 -65 136 -65 35 0 76 42 76 78 0 44 -22 65 -135
129 -54 30 -100 58 -102 62 -7 10 65 131 77 131 7 0 27 -9 45 -20 58 -35 123
-19 136 34 10 38 -9 73 -56 102 -24 15 -45 28 -46 30 -3 2 63 122 74 133 1 2
53 -25 114 -59 61 -34 122 -62 135 -62 35 0 72 26 77 56 10 51 -14 78 -131
144 -61 35 -111 65 -111 67 0 4 69 125 76 133 1 2 22 -8 47 -22 57 -33 82 -33
118 3 46 47 33 95 -38 136 -35 21 -41 29 -34 43 21 38 91 94 147 118 73 31
172 29 246 -3z m-1400 -2513 c67 -40 125 -74 127 -76 2 -2 -298 -532 -313
-551 0 0 -62 35 -136 78 -77 45 -134 84 -132 92 10 37 308 537 318 533 7 -3
68 -37 136 -76z m321 -185 l37 -19 0 -308 0 -308 -105 0 -105 0 -90 51 c-50
28 -93 55 -96 60 -3 5 57 116 132 246 172 300 175 305 183 301 3 -2 23 -12 44
-23z" fill= '#98de66'/>
<path fill= '#e31b78' d="M1305 2695 c-25 -24 -25 -24 -25 -240 l0 -215 -215 0 c-216 0 -216 0
-240 -25 l-25 -24 0 -271 0 -271 25 -24 c24 -25 24 -25 240 -25 l215 0 0 -215
c0 -216 0 -216 25 -240 l24 -25 231 0 231 0 24 25 c33 32 33 78 0 110 -24 25
-27 25 -200 25 l-175 0 0 215 c0 288 23 265 -265 265 l-215 0 0 160 0 160 215
0 c288 0 265 -23 265 265 l0 215 160 0 160 0 0 -215 c0 -286 -19 -265 240
-265 189 0 191 0 215 25 33 32 33 78 0 110 -23 24 -29 25 -160 25 l-135 0 0
215 c0 216 0 216 -25 240 l-24 25 -271 0 -271 0 -24 -25z"/>
<path fill= '#e31b78' d="M4603 4468 c-30 -15 -289 -449 -304 -511 -40 -163 43 -332 199 -405
48 -23 71 -27 142 -27 76 0 93 4 152 33 75 37 133 96 168 170 28 57 37 163 21
229 -7 29 -67 140 -147 274 -150 251 -166 268 -231 237z m132 -380 c89 -151
90 -153 90 -218 0 -56 -4 -73 -28 -108 -35 -54 -96 -86 -163 -85 -120 1 -210
111 -184 226 7 34 178 337 190 337 3 0 46 -69 95 -152z"/>
</g>
</svg>
